<svg xmlns="http://www.w3.org/2000/svg" viewBox="0 0 180.22 136.49"><title>Asset 1</title><g id="Layer_2" data-name="Layer 2"><g id="Layer_1-2" data-name="Layer 1"><path d="M0,10.15a10,10,0,0,0,.9,3.32,28.08,28.08,0,0,1,1.72,7.76,132.93,132.93,0,0,1,.7,15.19A236,236,0,0,0,5.11,64.16C6.23,74.12,7,84,7.48,94c.21,4.56-.43,9.13.12,13.69.51,4.09,1.54,8.13,2.18,12.2,1.14,7.36,4.52,11,12,11.88,9.76,1.17,19.07,3.27,29,2.88s19.54,1.08,29.32,1.24c9.53.15,19,.66,28.53.63,5.66,0,11.24-.68,16.91-.67,5.48,0,10.92.12,16.38-.39,10.78-1,21.92,1,32.56-1.06,3.79-.73,2.19-6.52-1.59-5.78-9,1.74-18.6.16-27.7.57s-18.32.1-27.35.88S100,129.9,91,129.77c-8.85-.13-17.66-.11-26.49-.61-9.43-.55-19.16.3-28.46-1.38-3.93-.71-7.85-1.38-11.82-1.82-1.86-.21-4.44-.21-6.08-1.34-2.05-1.4-2.2-4.15-2.55-6.35-.64-4.09-1.82-8.22-2.15-12.34-.36-4.53.29-9.1,0-13.64-.66-9.14-1.18-18.09-2.16-27.22A258.7,258.7,0,0,1,9.33,35.5a121.54,121.54,0,0,0-.7-14.27,50.86,50.86,0,0,0-.88-6.86C7.42,13,6.1,11.43,6,10.15c-.28-3.83-6.28-3.86-6,0Z"/><path d="M2.89,1.36l-.44.55c-1.31,1.65-1.08,4.45,1.32,5,7.62,1.79,16.57-.28,24.32-.44,10.1-.21,20.19-.86,30.3-.67,10.33.19,20.63.59,31,.67A81.55,81.55,0,0,1,103,7.88c4.73.85,9.52.79,14.29,1.53,17,2.61,34.29.67,51,5.66,1.92.57,4.94.72,5.75,2.8.53,1.4,0,4.44,0,5.86a97,97,0,0,1-.92,14.35c-1.23,8.8-1.88,17.81-3.43,26.53-1.85,10.42-1,20.93-2.32,31.36a64.07,64.07,0,0,0-.51,14.9c.5,4.54,1.77,9.2,1.85,13.77h6v-.49c-.13-3.86-6.13-3.87-6,0v.49c.12,3.85,6.07,3.87,6,0a107.38,107.38,0,0,0-1.31-11,64.5,64.5,0,0,1-.28-15.77c1.19-10.22.43-20.6,2.2-30.77,1.62-9.33,2.37-18.79,3.69-28.17a84.44,84.44,0,0,0,1-12.5c0-3.59.7-8.15-.61-11.59-1.17-3.08-3.57-3.8-6.48-4.6-5-1.38-9.8-2.28-14.88-3.2a161.06,161.06,0,0,0-25.65-2.53c-4.34-.08-8.85-.38-13.15-.83-4.84-.5-10-.77-14.73-1.56C94.25.39,84.21.64,73.81.56,61.63.48,49.64-.38,37.43.2,32,.46,26.48.44,21,.81c-4.81.32-10.92,1.44-15.64.33l1.32,5,.44-.55c2.38-3-1.84-7.27-4.24-4.24Z"/><path d="M3,12.48c3.5,0,7.12.24,10.32,1.8,3.89,1.91,7.27,5.46,10.67,8.16,6.58,5.19,13.53,10.43,19.45,16.36,11,11,22,22.7,34.68,31.76,3,2.14,6,4.29,9.16,6.18,3.68,2.2,5.88,5.52,9.24,8,1.73,1.24,3.4,1.62,5.27.6,3.16-1.73,6.37-4.85,9.19-7.19s5.41-5.18,8.14-7.7,5.88-4.6,8.79-7c6.11-5,12.64-9.33,18.56-14.55,3.18-2.81,6.3-5.73,9.4-8.63s5.64-6.57,8.87-9.49,6.57-6.21,10-9c2-1.6,4.6-2.64,5.1-5.39.26-1.49-.39-3.37-2.1-3.69l-.6-.11c-3.77-.72-5.39,5.06-1.59,5.78l.6.12-2.1-3.7c-.15.85-4.43,3.57-5,4.1-2.8,2.62-5.71,5.07-8.55,7.64s-5,5.68-7.69,8.35-5.31,4.9-7.95,7.37c-10.84,10.14-24,17.57-34.49,28a97.41,97.41,0,0,1-9.12,7.7c-1.61,1.26-1,1.25-2.21.7s-2.74-3-3.9-4c-2.47-2.18-5.64-3.58-8.36-5.42C83.41,67,80,64.69,76.86,62.12,70.74,57.19,65.24,51.5,59.45,46.19S48.53,34.58,42.35,29.64c-6.9-5.51-13.81-11-20.6-16.68C16.09,8.25,10.37,6.58,3,6.48c-3.86-.05-3.86,5.95,0,6Z"/><path d="M73.09,72.63C72,74.18,70.18,74.73,68.87,76c-.93.89-1.61,2-2.52,2.94-2.91,2.92-6.53,5.2-9.78,7.7-5.34,4.1-10.65,8.52-15.69,13a129.64,129.64,0,0,0-15.32,15.5,54.62,54.62,0,0,1-6.93,7.48c-1.75,1.51-3.35,3.1-3.85,5.43-.8,3.77,5,5.38,5.79,1.6.48-2.25,4.35-4.4,5.84-6.05,2.4-2.63,4.39-5.61,6.81-8.23a145.82,145.82,0,0,1,15.54-14.19c5.81-4.68,11.39-9.6,17.28-14.21A47.46,47.46,0,0,0,72,81.64c2-2.23,4.52-3.45,6.28-6,2.2-3.18-3-6.19-5.18-3Z"/><path d="M117,71.81c3.92.06,6,2.7,8.81,5,2.23,1.85,4.79,3.16,7,5a175.78,175.78,0,0,1,15,14.11c4.5,4.75,8.13,10.36,12.87,14.87,1.92,1.82,4.14,3.22,5.55,5.53s2.12,4.89,3.84,7c2.23,2.78,6.17-.76,4.71-3.64l-.56-1.11c-1.75-3.44-6.93-.41-5.18,3l.56,1.11,4.71-3.63c-2-2.44-2.52-5.77-4.61-8.21-1.92-2.23-4.41-3.89-6.41-6.07-5.2-5.66-9.68-11.83-15.26-17.16-5-4.73-9.91-9.53-15.55-13.42-5.47-3.76-8.41-8.35-15.52-8.47-3.86-.06-3.86,5.94,0,6Z"/></g></g></svg>