<svg xmlns="http://www.w3.org/2000/svg" viewBox="0 0 193.18 201.5"><title>Asset 2</title><g id="Layer_2" data-name="Layer 2"><g id="Layer_1-2" data-name="Layer 1"><path d="M1.23,30.37c0,23.34-.57,46.65-.65,70-.09,22.55-3.07,45.37,5.38,67C9,175.13,14.64,183,22.32,187c4.21,2.23,9.26,3.26,13.79,4.67a162.65,162.65,0,0,0,17.64,4.73c5,1,9.83,2.79,14.85,3.84a72.49,72.49,0,0,0,17.59,1.14c11.36-.42,22.09-2.61,33.16-5,11.75-2.49,23.81-3.77,35.56-6.33,11.5-2.51,22.6-5.82,33.91-9,2-.56,3.17-3.57,1.32-5-1-.82-2.08-1.68-3.13-2.51-3-2.39-7.25,1.83-4.24,4.24,1,.84,2.08,1.69,3.13,2.52l1.33-5c-9.08,2.56-17.86,5.5-27.16,7.32-9.72,1.9-19.49,3.68-29.22,5.61-20.51,4.08-44,11.39-64.75,5.16-10-3-20.15-4.9-30.11-8-5.21-1.64-10.6-2.73-14.75-6.5-3.6-3.26-7.06-7-8.86-11.56C4.3,147.15,5.47,125.25,6.48,104c.28-5.9-.27-11.8.09-17.7.37-6.12.71-12.17.69-18.31q-.06-18.79,0-37.59c0-3.86-6-3.86-6,0Z"/><path d="M8.41,24.45c1.21.53-.7.52.86-.3,1-.5,1.41-1.16,2.49-1.65,2-.89,4-1.46,5.92-2.41a75.49,75.49,0,0,1,17.17-6c9.87-2.24,19.75-4.6,29.67-6.65,21.83-4.51,43.22.84,64.4,5.67,10,2.28,20.65,6.22,29.19,12a54.25,54.25,0,0,1,10.13,8.63c3.7,4.11,4.87,9.14,6.9,14.14a85.57,85.57,0,0,1,6.09,32.8c0,9.56.85,19.09,1.36,28.63.31,5.6,1.24,10.7,1.92,16.3s2.39,11.36,2.27,17.15c-.11,5.38-.27,10.7-.74,16.05-.44,4.9-.34,10.1,1.23,14.79l4.4-3.38-.66-.66c-2.6-2.87-6.83,1.38-4.24,4.24a11.52,11.52,0,0,0,1.88,1.6c2.12,1.52,5.2-1,4.4-3.39-1.76-5.28-1.15-10.75-.64-16.18a105.38,105.38,0,0,0,.31-17.13c-.42-5.58-1.88-11.25-2.66-16.81-.38-2.68-1.33-5.37-1.53-8.06-.23-3-.21-6-.47-9-1-11.76-.2-23.64-1.35-35.41-1.1-11.16-4.85-21.67-9-32-3.51-8.73-13.05-16.29-21.32-20.31A141.63,141.63,0,0,0,123.77,6c-5.34-1.17-10.45-2.92-15.85-3.89a136.67,136.67,0,0,0-18.06-2,121.49,121.49,0,0,0-36,3.63C40.83,7,27.64,8.66,15.43,14.5c-4.19,2-8.77,2.74-11.53,6.81-2,3-2.22,6.7,1.48,8.32,3.5,1.53,6.56-3.64,3-5.18Z"/><path d="M55.23,89.71v-.44c0-3.87-5.91-3.86-6,0s.51,7.26.82,11.1c.32,4.11-.13,8.32.25,12.47.74,8.24-.08,16.31-.37,24.54-.26,7.4,2,14.22,3.4,21.35.8,4.1,2.08,10.15,6.56,11.68,2.47.84,5.82.49,8.43.43,2.23-.05,4.16-.63,5.16-2.79s.45-4.87.41-7.13c-.08-4.16,0-8.33,0-12.49,0-8.66-.67-17.22-.65-25.9,0-8.52.66-17,.66-25.54,0-4.57,1.63-14.6-3.81-17.27-2.23-1.09-5.81-.42-8.2-.34-4,.13-6.76,1.57-9.77,4.21s1.34,6.77,4.24,4.24c2.4-2.1,4.56-2.41,7.58-2.45.56,0,2.84-.38,3.2-.13,2,1.44.76,7.81.76,9.81,0,8-.52,15.88-.65,23.83-.12,7.72.3,15.29.66,23,.2,4.35,0,8.8,0,13.15,0,2.57,1,6.88.13,9.2-.18.45-.08.67.3.64l-2.08-.13c-1.45,0-3.92.77-5-.58-.35-.45-.32-1.81-.56-2.45a29.77,29.77,0,0,1-1.75-5.31c-1.32-7-3.33-13.48-2.91-20.76.44-7.62,1-15.15.27-22.77-.38-4.19-.12-8.29-.25-12.47-.12-3.76-.92-7.26-.82-11.1h-6v.44c0,3.86,6,3.86,6,0Z"/><path d="M58.05,39.78a13.46,13.46,0,0,0-6.75,8.15c-1,3.19-2.13,6.11-.51,9.28,1.82,3.57,5,3.76,8.66,3.49s6.29-2.14,8.87-4.64c5.21-5,7.59-14.65-.72-18.1a10.69,10.69,0,0,0-9.93.93C54.61,41.14,52,42.78,51.89,47c0,3.86,6,3.87,6,0,0-1.51,1.92-2.26,3.09-3a4.48,4.48,0,0,1,5.32.17c3.21,2.75-2.13,7.78-4.3,9.38a5.65,5.65,0,0,1-3.87,1.17c-1.93.07-2.32.21-2-1.81a10.49,10.49,0,0,1,5-8c3.33-2,.32-7.14-3-5.18Z"/><path d="M99.79,94.91l-.08-.53a2.9,2.9,0,0,0-2.1-2.1l-.44-.08a3.06,3.06,0,0,0-3.69,2.09c-.91,3.86-.29,7.69-.25,11.6,0,5,.5,9.89.87,14.9.74,10,1.94,19.93,2.43,29.9a49,49,0,0,0,2.26,12.4c.78,2.29,2.18,3.28,4.52,3.87,4.52,1.15,9.64.46,14.25.41,3.69,0,7.69,1.54,11.25.35a3.17,3.17,0,0,0,2.2-2.9c.41-3.35-1.46-6.41-2.15-9.62a124,124,0,0,1-1.74-13.57c-.82-7.93-2.74-20.47,6.83-23.78,3.32-1.14,8-.75,9.59,3,1.91,4.59,1,10.77,1,15.61,0,4.18,0,8.34-.17,12.51-.11,2.75.28,5.25,3.21,6.28,2.26.8,5,.14,7.41.28s5.88.75,8.2-.5c4.8-2.59,1.42-13,.72-16.94-.8-4.54-.78-9.15-1.66-13.69a70.57,70.57,0,0,1-1-15.84c.23-7.31,1.91-18.73-3.47-24.72a14.94,14.94,0,0,0-9.34-4.38c-4.58-.55-10.14-.75-14.49.93a37.66,37.66,0,0,0-12.13,7.51,22,22,0,0,0-4.17,5.59c-.75,1.42-1.06,3.6-2.27,4.64h4.24c-1.72-2.13-3.51-7-3.85-9.64a3.11,3.11,0,0,0-2.21-2.89c-5.5-1.11-16.66-1.81-16.39,6.14.13,3.85,6.13,3.87,6,0,.12-1.44-.06-1.47-.53-.1a15.22,15.22,0,0,1,2.85-.36,23.06,23.06,0,0,1,6.48.1l-2.2-2.89a29.53,29.53,0,0,0,5.61,13.88c1.07,1.33,3.12,1,4.24,0,1.95-1.67,2.42-4.36,3.64-6.53,2.48-4.44,7.28-7.5,11.86-9.46,3.67-1.57,9.83-1.68,13.77-.77,5.76,1.32,6.27,6.38,6.52,11.54.44,9-1.1,18.14.62,27.12.82,4.31,1.09,8.56,1.66,12.9.51,3.87.79,8.23,1.66,12a5.79,5.79,0,0,1,.08,1.61c.21-2.42,1.22-.46-.27-1.07-.95-.38-3.15-.11-4.21-.18a17.88,17.88,0,0,0-2.64-.1c-2.47.22-2,1-1.87-1.53.47-8.16.94-17.43-.59-25.45-1.12-5.88-4.22-10.15-10.53-11a16.92,16.92,0,0,0-14.36,5.3c-5.28,5.69-5.13,15.7-4.25,22.91.51,4.25.85,8.47,1.41,12.71a48.09,48.09,0,0,0,1.16,5.83c.59,2.23,2,4.27,1.67,6.65l2.2-2.89c-2.57.86-6.83-.58-9.65-.56-3.16,0-9.77,1.3-12.66-.19-.13,1-.29,1-.46-.11l-.43-2.31c-.33-1.89-.71-3.77-1.07-5.66-.68-3.65-.52-7.43-1-11.14-1.06-7.77-1.23-15.71-2-23.52-.38-3.93-.68-7.73-.71-11.69,0-3.57-.77-7.37,0-10.86L95.58,98l.44.09L93.92,96l.08.54c.56,3.8,6.34,2.18,5.79-1.6Z"/></g></g></svg>