<svg xmlns="http://www.w3.org/2000/svg" viewBox="0 0 93.76 65.36"><title>Asset 3</title><g id="Layer_2" data-name="Layer 2"><g id="Layer_1-2" data-name="Layer 1"><path d="M92.91,3.27A5.64,5.64,0,0,0,90.8.5c-2.17-1.64-5.06,1.07-4.4,3.39,1.95,7,1.75,14.74,1.22,22-.48,6.4-4.29,14.3-10.13,17.51-6.16,3.38-15.11,3.49-22,3.27a40.92,40.92,0,0,1-11.26-1.83C42,44,34.53,42.21,33.36,40l-1.79,4.41.58-.15c3.74-1,2.16-6.75-1.59-5.79l-.59.15a3,3,0,0,0-1.79,4.41c1.68,3.13,4.69,3.75,7.81,5,4.93,1.89,9.53,3.61,14.83,4.24,8.77,1,20.13.72,28.33-3.06,6.74-3.11,12-10.75,13.71-17.87,1.13-4.59.82-9.44.88-14.12A50.2,50.2,0,0,0,92.18,2.3L87.77,5.68l-.64-.81c1.43,3.53,7.24,2,5.78-1.6Z"/><path d="M28,27.07c-4,.3-8.31,3.11-11.77,5.07C12.1,34.49,6.93,36.3,3.56,39.8,1.43,42-1,45,.42,48.2c1.9,4.22,7.66,6.26,11.23,8.74,2.28,1.58,4.57,3.05,6.93,4.49,1.69,1,3.19,2.79,5,3.54,2.84,1.17,5.19-.43,6.07-3.19,1.57-4.92,2-10.51,3.3-15.57,1.1-4.44,2.76-8.64,1.8-13.25-.59-2.79-4.09-2.61-5.49-.72a4.51,4.51,0,0,0-.92,3.16c0,3.87,6,3.87,6,0l.1-.13L29,34.55c.69,3.26-1,6.94-1.8,10.07-.84,3.39-1.68,6.8-2.39,10.22-.21,1.06-1,3.09-.7,4.18l-.21,1.17c1.86-.62,2.09-1.32.71-2.11-.8-1.61-5.68-3.41-7.18-4.42q-4.07-2.73-8.19-5.36a5.29,5.29,0,0,1-2.15-1.58c-1.19-.65-1.08-1.4.31-2.24a8.35,8.35,0,0,1,3.23-2.58c2.9-1.56,5.79-2.94,8.67-4.58,2-1.15,6.38-4.07,8.74-4.25,3.83-.28,3.86-6.29,0-6Z"/></g></g></svg>