<svg id="Layer_1" data-name="Layer 1" xmlns="http://www.w3.org/2000/svg" viewBox="0 0 178.66 156.14"><title>Untitled-1</title><path d="M588.35,223.59c6.28-3.93,11.48-7.63,16.43-13.23,4.74-5.37,6.93-11.73,9.47-18.31,2.76-7.14,4.76-14.54,4.75-22.26s-2.56-15.16-5.46-22.2c-5.94-14.43-14.72-26.48-27.65-35.32-13.49-9.21-30.63-13.47-46.72-14.88-30-2.62-67.42,4.08-86.28,29.64a62.06,62.06,0,0,0-12.13,44.23c.9,7.45,2.34,15.52,5.24,22.47s7.19,13.41,11.6,19.45,9.48,11.67,16.15,15.14a75.16,75.16,0,0,0,25.2,7.56,153,153,0,0,0,30,.51,92.37,92.37,0,0,0,12.18-1.54c3.73-.78,7.82-.39,11.19-2.35s.32-7.14-3-5.18c-2.25,1.31-6.31,1.05-8.91,1.57a91.67,91.67,0,0,1-11.43,1.5,169.39,169.39,0,0,1-22.53.15c-13.72-.85-28.94-4.17-38.73-14.49-19.24-20.3-28.38-52.58-14.56-78.18a56,56,0,0,1,30.2-26.48,127.55,127.55,0,0,1,43-8.43c28.59-.53,59.73,8.57,75.31,34.21,8.31,13.67,13.93,29.29,9.67,45.24-1.81,6.77-4.5,15-8.43,20.79-4.53,6.68-10.83,11-17.53,15.21-3.26,2-.25,7.23,3,5.18Z" transform="translate(-440.34 -96.86)"/><path d="M587.71,225.42l-.61-1.25c-1.31-2.67-5.73-1.39-5.59,1.51.24,4.94,2.51,8.93,3.59,13.64-.05-.23,1.36,8.64,1.59,8.47.94-.68-4.7-3.3-5.21-3.6-4.68-2.73-8.63-6.33-12.84-9.69a28.4,28.4,0,0,0-5.23-3.56c-1.79-.86-4.19-1-5.77-2.23l.47,3.64-.1.15c3.44-1.74.41-6.92-3-5.18a4.66,4.66,0,0,0-2.05,2,3,3,0,0,0,.47,3.64c2.18,1.69,4.19,2,6.7,3,3.35,1.38,6,4.19,8.73,6.46,4.72,3.89,10.15,8.28,16.13,10,15.11,4.41,2.82-21.16,2.55-26.81l-5.59,1.52.61,1.25c1.7,3.47,6.87.43,5.18-3Z" transform="translate(-440.34 -96.86)"/></svg>